<svg width="59" height="59" viewBox="0 0 59 59" fill="none" xmlns="http://www.w3.org/2000/svg">
<path d="M45.5593 2.90099L16.0177 32.5472C13.7352 34.8246 12.4628 37.9183 12.4759 41.1435V44.4083C12.4759 45.7511 13.5647 46.8437 14.9027 46.8437H18.1559C21.3698 46.8437 24.4525 45.5668 26.7219 43.2893L56.2635 13.6431C59.215 10.6811 59.215 5.87615 56.2635 2.91416C53.2726 0.0443203 48.5633 0.0443203 45.5724 2.91416L45.5593 2.90099ZM52.8266 10.1941L23.2851 39.8403C21.9208 41.2094 20.0712 41.9729 18.1428 41.9729H17.3164V41.1435C17.3164 39.2084 18.0904 37.3522 19.4415 35.9831L48.9831 6.3369C50.0587 5.31008 51.7509 5.31008 52.8266 6.3369C53.8892 7.40322 53.8892 9.12775 52.8266 10.1941ZM56.0799 22.4764C54.7418 22.4764 53.6531 23.5691 53.6531 24.9119V37.1152H43.9589C39.9448 37.1152 36.6916 40.38 36.6916 44.4083V54.1368H12.4628C8.44868 54.1368 5.19543 50.872 5.19543 46.8437V12.8006C5.19543 8.77231 8.44868 5.50754 12.4628 5.50754H34.3697C35.7077 5.50754 36.7965 4.4149 36.7965 3.07213C36.7965 1.72936 35.7077 0.636719 34.3697 0.636719H12.4628C5.77262 0.636719 0.354915 6.08678 0.341797 12.8006V46.8437C0.341797 53.5576 5.77262 58.9945 12.4628 59.0076H39.9448C43.1587 59.0076 46.2414 57.7307 48.5108 55.4532L54.9517 48.9895C57.2342 46.7121 58.5067 43.6185 58.5067 40.3932V24.9119C58.5067 23.5691 57.4179 22.4764 56.0799 22.4764ZM45.087 52.0042C44.1163 52.9783 42.8832 53.6497 41.5321 53.9525V44.4215C41.5321 43.0787 42.6209 41.9861 43.9589 41.9861H53.4694C53.1677 43.3288 52.4987 44.5663 51.5279 45.5405L45.087 52.0042Z" fill="#2FAE84"/>
</svg>
