<svg width="106" height="100" viewBox="0 0 106 100" fill="none" xmlns="http://www.w3.org/2000/svg">
<path d="M23.4248 0C25.9214 1.09131e-07 27.9453 2.0239 27.9453 4.52051V12.5342H35.959C38.4556 12.5342 40.4794 14.5581 40.4795 17.0547C40.4795 19.5513 38.4556 21.5752 35.959 21.5752H27.9453V29.5889C27.9453 32.0855 25.9214 34.1094 23.4248 34.1094C20.9282 34.1093 18.9043 32.0854 18.9043 29.5889V21.5752H10.8906C8.39404 21.5751 6.37012 19.5513 6.37012 17.0547C6.37017 14.5581 8.39407 12.5342 10.8906 12.5342H18.9043V4.52051C18.9043 2.02395 20.9283 8.46727e-05 23.4248 0Z" fill="#999999"/>
<path d="M32.0547 5.61719C42.7408 2.87747 69.0117 3.20304 75.9893 6.59473C79.4347 7.61305 82.47 9.69597 84.6602 12.5439C88.8575 18.0219 92.6129 23.8253 95.8906 29.8984C96.0712 29.8636 98.604 29.8633 98.6299 29.8633C100.374 29.8633 102.046 30.556 103.279 31.7891C104.512 33.0222 105.205 34.6946 105.205 36.4385V64.9316C105.204 68.0087 104.394 71.0317 102.855 73.6963C101.317 76.3609 99.1033 78.5738 96.4385 80.1123V86.8496C96.4384 90.3372 95.053 93.6823 92.5869 96.1484C90.1208 98.6146 86.7757 99.9999 83.2881 100C79.8003 100 76.4545 98.6147 73.9883 96.1484C71.5222 93.6823 70.1368 90.3372 70.1367 86.8496V82.4658H35.0684V86.8496C35.0683 90.3373 33.683 93.6823 31.2168 96.1484C28.7506 98.6146 25.4057 100 21.918 100C18.4303 100 15.0854 98.6145 12.6191 96.1484C10.153 93.6823 8.76764 90.3373 8.76758 86.8496V80.1123C6.10286 78.5738 3.88949 76.3607 2.35059 73.6963C0.81169 71.0317 0.000860482 68.0087 0 64.9316V36.4385C0 34.6946 0.692725 33.0222 1.92578 31.7891C3.15886 30.556 4.83136 29.8633 6.5752 29.8633C6.5752 29.8633 9.1357 29.8634 9.31543 29.8984C10.0817 28.4788 10.8744 27.074 11.6924 25.6846H14.7939V29.5889C14.794 31.5745 15.4667 33.4021 16.5938 34.8604C14.6044 38.5857 12.8019 42.4131 11.1953 46.3281C38.6547 42.3215 66.5504 42.3215 94.0098 46.3281C89.8424 36.1725 84.3599 26.6076 77.7031 17.8789C76.6293 16.494 75.1456 15.4822 73.4639 14.9893C68.9518 12.7573 54.4395 12.0413 43.4863 12.8359C42.0082 10.2041 39.1924 8.4249 35.959 8.4248H32.0547V5.61719ZM17.5342 86.8496C17.5342 88.0121 17.9963 89.1272 18.8184 89.9492C19.6404 90.7712 20.7555 91.2334 21.918 91.2334C23.0805 91.2334 24.1955 90.7712 25.0176 89.9492C25.8396 89.1272 26.3017 88.0121 26.3018 86.8496V82.4658H17.5342V86.8496ZM78.9043 86.8496C78.9044 88.012 79.3656 89.1272 80.1875 89.9492C81.0096 90.7713 82.1255 91.2334 83.2881 91.2334C84.4505 91.2333 85.5657 90.7712 86.3877 89.9492C87.2096 89.1272 87.6708 88.0121 87.6709 86.8496V82.4658H78.9043V86.8496ZM52.6025 51.7812C37.9239 52.0644 23.2803 53.3195 8.76758 55.5381V64.9316C8.7676 67.2568 9.69082 69.4867 11.335 71.1309C12.9791 72.775 15.209 73.6982 17.5342 73.6982H87.6709C89.996 73.6982 92.226 72.7749 93.8701 71.1309C95.5143 69.4867 96.4385 67.2568 96.4385 64.9316V55.5381C81.9256 53.3195 67.2813 52.0644 52.6025 51.7812ZM21.918 60.5479C23.0805 60.5479 24.1955 61.01 25.0176 61.832C25.8396 62.6541 26.3018 63.7691 26.3018 64.9316C26.3017 66.0942 25.8396 67.2092 25.0176 68.0312C24.1955 68.8533 23.0805 69.3154 21.918 69.3154C20.7554 69.3154 19.6404 68.8532 18.8184 68.0312C17.9963 67.2092 17.5342 66.0942 17.5342 64.9316C17.5342 63.769 17.9963 62.6541 18.8184 61.832C19.6404 61.01 20.7554 60.5479 21.918 60.5479ZM83.2881 60.5479C84.4505 60.548 85.5657 61.0101 86.3877 61.832C87.2096 62.6541 87.6709 63.7692 87.6709 64.9316C87.6709 66.0941 87.2096 67.2092 86.3877 68.0312C85.5657 68.8532 84.4505 69.3153 83.2881 69.3154C82.1255 69.3154 81.0096 68.8533 80.1875 68.0312C79.3656 67.2092 78.9043 66.0941 78.9043 64.9316C78.9043 63.7692 79.3656 62.6541 80.1875 61.832C81.0096 61.01 82.1255 60.5479 83.2881 60.5479Z" fill="#999999"/>
</svg>
